<?xml version="1.0" encoding="UTF-8" standalone="no"?>
<svg
   viewBox="0 0 128 128"
   version="1.1"
   id="svg2"
   sodipodi:docname="NixOS-all-flakes-seperate.svg"
   inkscape:version="1.4.2 (ebf0e940d0, 2025-05-08)"
   xmlns:inkscape="http://www.inkscape.org/namespaces/inkscape"
   xmlns:sodipodi="http://sodipodi.sourceforge.net/DTD/sodipodi-0.dtd"
   xmlns="http://www.w3.org/2000/svg"
   xmlns:svg="http://www.w3.org/2000/svg">
  <defs
     id="defs2" />
  <sodipodi:namedview
     id="namedview2"
     pagecolor="#505050"
     bordercolor="#ffffff"
     borderopacity="1"
     inkscape:showpageshadow="0"
     inkscape:pageopacity="0"
     inkscape:pagecheckerboard="1"
     inkscape:deskcolor="#505050"
     inkscape:zoom="6.2421875"
     inkscape:cx="63.9199"
     inkscape:cy="64"
     inkscape:window-width="1920"
     inkscape:window-height="1008"
     inkscape:window-x="0"
     inkscape:window-y="0"
     inkscape:window-maximized="1"
     inkscape:current-layer="g4" />
  <g
     id="g4">
    <path
       fill="#7ebae4"
       d="m 53.05,85.865 60.409,0.003 -6.827,12.164 -16.205,-0.045 8.047,14.115 -3.45,6.01 -7.05,0.008 L 76.529,98.023 60.046,97.989 Z"
       clip-rule="evenodd"
       fill-rule="evenodd"
       id="path1"
       sodipodi:nodetypes="cccccccccc" />
    <path
       fill="#7ebae4"
       d="M 88.21,62.791 58.008,10.131 71.888,10 l 8.063,14.148 8.12,-14.072 6.897,0.002 3.532,6.143 -11.57,20.024 8.213,14.386 z"
       clip-rule="evenodd"
       fill-rule="evenodd"
       id="path3"
       sodipodi:nodetypes="cccccccccc" />
    <path
       fill="#7ebae4"
       d="M 50.732,43.771 20.525,96.428 13.473,84.395 21.613,70.292 5.446,70.25 2,64.237 l 3.519,-6.15 23.013,0.073 8.27,-14.352 z"
       clip-rule="evenodd"
       fill-rule="evenodd"
       id="path4"
       sodipodi:nodetypes="cccccccccc" />
  </g>
  <g
     id="g6">
    <path
       fill="#5277c3"
       d="m 77.268,84.472 30.207,-52.658 7.052,12.034 -8.141,14.102 16.168,0.043 3.446,6.013 -3.519,6.15 -23.013,-0.073 -8.27,14.352 z"
       clip-rule="evenodd"
       fill-rule="evenodd"
       id="path2"
       sodipodi:nodetypes="cccccccccc" />
    <path
       fill="#5277c3"
       d="M 74.911,42.256 14.502,42.253 21.33,30.09 37.534,30.135 29.487,16.02 l 3.45,-6.01 7.051,-0.01 11.444,20.097 16.484,0.034 6.996,12.124 z"
       clip-rule="evenodd"
       fill-rule="evenodd"
       id="path6"
       sodipodi:nodetypes="ccccccccccc" />
    <path
       fill="#5277c3"
       d="m 39.831,65.463 30.202,52.66 -13.88,0.131 -8.063,-14.148 -8.12,14.072 -6.897,-0.002 -3.532,-6.143 11.57,-20.024 -8.213,-14.386 z"
       clip-rule="evenodd"
       fill-rule="evenodd"
       id="path7"
       sodipodi:nodetypes="cccccccccc" />
  </g>
</svg>
