<?xml version="1.0" encoding="UTF-8" standalone="no"?>
<svg
   viewBox="0 0 128 128"
   version="1.1"
   id="svg2"
   sodipodi:docname="NixOS-3-section-flag.svg"
   inkscape:version="1.4.2 (ebf0e940d0, 2025-05-08)"
   xmlns:inkscape="http://www.inkscape.org/namespaces/inkscape"
   xmlns:sodipodi="http://sodipodi.sourceforge.net/DTD/sodipodi-0.dtd"
   xmlns="http://www.w3.org/2000/svg"
   xmlns:svg="http://www.w3.org/2000/svg">
  <defs
     id="defs2" />
  <sodipodi:namedview
     id="namedview2"
     pagecolor="#505050"
     bordercolor="#ffffff"
     borderopacity="1"
     inkscape:showpageshadow="0"
     inkscape:pageopacity="0"
     inkscape:pagecheckerboard="1"
     inkscape:deskcolor="#505050"
     inkscape:zoom="6.2762627"
     inkscape:cx="62.13889"
     inkscape:cy="55.686005"
     inkscape:window-width="1920"
     inkscape:window-height="1008"
     inkscape:window-x="0"
     inkscape:window-y="0"
     inkscape:window-maximized="1"
     inkscape:current-layer="svg2" />
  <g
     id="g15">
    <path
       fill="#7ebae4"
       d="m 53.05,85.865 60.409,0.003 -6.827,12.164 -16.205,-0.045 8.047,14.115 -3.45,6.01 -7.05,0.008 L 76.529,98.023 60.046,97.989 Z"
       clip-rule="evenodd"
       fill-rule="evenodd"
       id="path1"
       sodipodi:nodetypes="cccccccccc"
       style="fill:#000000" />
    <path
       id="path4"
       d="M 27.375 84.488281 L 13.527344 84.488281 L 20.525391 96.427734 L 27.375 84.488281 z " />
    <path
       id="path7"
       d="M 50.742188 84.488281 L 36.818359 84.488281 L 41.111328 92.009766 L 29.541016 112.0332 L 33.072266 118.17578 L 39.970703 118.17773 L 48.089844 104.10547 L 56.152344 118.25391 L 70.033203 118.12305 L 50.742188 84.488281 z " />
  </g>
  <g
     id="g14">
    <path
       id="path12"
       d="M 50.732422 43.771484 L 36.802734 43.808594 L 28.53125 58.160156 L 5.5195312 58.087891 L 2 64.236328 L 5.4453125 70.25 L 21.613281 70.292969 L 13.472656 84.394531 L 13.527344 84.488281 L 27.375 84.488281 L 50.732422 43.771484 z " />
    <path
       id="path13"
       d="M 39.830078 65.462891 L 32.898438 77.623047 L 36.818359 84.488281 L 50.742188 84.488281 L 39.830078 65.462891 z " />
    <path
       id="path2"
       d="M 114.47656 43.759766 L 100.62305 43.759766 L 77.267578 84.472656 L 91.197266 84.435547 L 99.46875 70.082031 L 122.48047 70.15625 L 126 64.005859 L 122.55469 57.992188 L 106.38672 57.949219 L 114.52734 43.847656 L 114.47656 43.759766 z " />
    <path
       id="path3"
       d="M 91.220703 43.759766 L 77.294922 43.759766 L 88.210938 62.791016 L 95.142578 50.630859 L 91.220703 43.759766 z " />
  </g>
  <g
     id="g13">
    <path
       fill="#5277c3"
       d="M 74.911,42.256 14.502,42.253 21.33,30.09 37.534,30.135 29.487,16.02 l 3.45,-6.01 7.051,-0.01 11.444,20.097 16.484,0.034 6.996,12.124 z"
       clip-rule="evenodd"
       fill-rule="evenodd"
       id="path6"
       sodipodi:nodetypes="ccccccccccc"
       style="fill:#000000" />
    <path
       id="path11"
       d="M 107.47461 31.814453 L 100.62305 43.759766 L 114.47656 43.759766 L 107.47461 31.814453 z " />
    <path
       id="path10"
       d="M 71.888672 10 L 58.007812 10.130859 L 77.294922 43.759766 L 91.220703 43.759766 L 86.929688 36.244141 L 98.5 16.220703 L 94.96875 10.078125 L 88.070312 10.076172 L 79.951172 24.148438 L 71.888672 10 z " />
  </g>
</svg>
