<?xml version="1.0" encoding="UTF-8" standalone="no"?>
<svg
   viewBox="0 0 128 128"
   version="1.1"
   id="svg2"
   sodipodi:docname="NixOS-7-section-flag.svg"
   inkscape:version="1.4.2 (ebf0e940d0, 2025-05-08)"
   xmlns:inkscape="http://www.inkscape.org/namespaces/inkscape"
   xmlns:sodipodi="http://sodipodi.sourceforge.net/DTD/sodipodi-0.dtd"
   xmlns="http://www.w3.org/2000/svg"
   xmlns:svg="http://www.w3.org/2000/svg">
  <defs
     id="defs2" />
  <sodipodi:namedview
     id="namedview2"
     pagecolor="#505050"
     bordercolor="#ffffff"
     borderopacity="1"
     inkscape:showpageshadow="0"
     inkscape:pageopacity="0"
     inkscape:pagecheckerboard="1"
     inkscape:deskcolor="#505050"
     inkscape:zoom="4.8687149"
     inkscape:cx="89.345959"
     inkscape:cy="38.921975"
     inkscape:window-width="1920"
     inkscape:window-height="1008"
     inkscape:window-x="0"
     inkscape:window-y="0"
     inkscape:window-maximized="1"
     inkscape:current-layer="svg2" />
  <g
     id="g35">
    <path
       id="path1"
       d="M 90.470703 98.0625 L 76.550781 98.0625 L 87.974609 118.11914 L 95.023438 118.11133 L 98.474609 112.10156 L 90.470703 98.0625 z " />
    <path
       id="path7"
       d="M 58.527344 98.0625 L 37.613281 98.0625 L 29.541016 112.0332 L 33.072266 118.17578 L 39.970703 118.17773 L 48.089844 104.10547 L 56.152344 118.25391 L 70.033203 118.12305 L 58.527344 98.0625 z " />
  </g>
  <g
     id="g34">
    <path
       id="path28"
       d="M 53.050781 85.865234 L 60.046875 97.988281 L 76.529297 98.023438 L 76.550781 98.0625 L 90.470703 98.0625 L 90.427734 97.986328 L 106.63281 98.03125 L 113.45898 85.867188 L 53.050781 85.865234 z " />
    <path
       id="path29"
       d="M 37.230469 85.212891 L 41.111328 92.009766 L 37.613281 98.0625 L 58.527344 98.0625 L 51.158203 85.212891 L 37.230469 85.212891 z " />
    <path
       id="path4"
       d="M 26.958984 85.212891 L 13.953125 85.212891 L 20.525391 96.427734 L 26.958984 85.212891 z " />
  </g>
  <g
     id="g33">
    <path
       id="path26"
       d="M 37.074219 70.298828 L 32.898438 77.623047 L 37.230469 85.212891 L 51.158203 85.212891 L 42.603516 70.298828 L 37.074219 70.298828 z " />
    <path
       id="path27"
       d="M 21.609375 70.298828 L 13.472656 84.394531 L 13.953125 85.212891 L 26.958984 85.212891 L 35.515625 70.298828 L 21.609375 70.298828 z " />
    <path
       id="path2"
       d="M 99.416016 70.171875 L 85.470703 70.171875 L 77.267578 84.472656 L 91.197266 84.435547 L 99.416016 70.171875 z " />
  </g>
  <g
     id="g32">
    <path
       id="path25"
       d="M 92.484375 57.945312 L 85.470703 70.171875 L 99.416016 70.171875 L 99.46875 70.082031 L 122.48047 70.15625 L 126 64.005859 L 122.55469 57.992188 L 106.38672 57.949219 L 106.38867 57.945312 L 92.484375 57.945312 z " />
    <path
       id="path23"
       d="M 28.576172 58.082031 L 28.53125 58.160156 L 5.5195312 58.087891 L 2 64.236328 L 5.4453125 70.25 L 21.613281 70.292969 L 21.609375 70.298828 L 35.515625 70.298828 L 42.523438 58.082031 L 28.576172 58.082031 z " />
    <path
       id="path24"
       d="M 39.830078 65.462891 L 37.074219 70.298828 L 42.603516 70.298828 L 39.830078 65.462891 z " />
    <path
       id="path3"
       d="M 90.972656 57.945312 L 85.431641 57.945312 L 88.210938 62.791016 L 90.972656 57.945312 z " />
  </g>
  <g
     id="g31">
    <path
       id="path22"
       d="M 50.732422 43.771484 L 36.802734 43.808594 L 28.576172 58.082031 L 42.523438 58.082031 L 50.732422 43.771484 z " />
    <path
       id="path20"
       d="M 76.859375 43 L 85.431641 57.945312 L 90.972656 57.945312 L 95.142578 50.630859 L 90.787109 43 L 76.859375 43 z " />
    <path
       id="path21"
       d="M 101.05859 43 L 92.484375 57.945312 L 106.38867 57.945312 L 114.52734 43.847656 L 114.03125 43 L 101.05859 43 z " />
  </g>
  <g
     id="g30">
    <path
       id="path18"
       d="M 107.47461 31.814453 L 101.05859 43 L 114.03125 43 L 107.47461 31.814453 z " />
    <path
       id="path19"
       d="M 69.431641 30.048828 L 76.859375 43 L 90.787109 43 L 86.929688 36.244141 L 90.509766 30.048828 L 69.431641 30.048828 z " />
    <path
       id="path6"
       d="M 51.404297 30.048828 L 37.484375 30.048828 L 37.533203 30.134766 L 21.330078 30.089844 L 14.501953 42.253906 L 74.910156 42.255859 L 74.912109 42.255859 L 67.916016 30.130859 L 51.431641 30.097656 L 51.404297 30.048828 z " />
  </g>
  <g
     id="g29">
    <path
       id="path17"
       d="M 71.888672 10 L 58.007812 10.130859 L 69.431641 30.048828 L 90.509766 30.048828 L 98.5 16.220703 L 94.96875 10.078125 L 88.070312 10.076172 L 79.951172 24.148438 L 71.888672 10 z " />
    <path
       id="path16"
       d="M 39.988281 10 L 32.9375 10.009766 L 29.486328 16.019531 L 37.484375 30.048828 L 51.404297 30.048828 L 39.988281 10 z " />
  </g>
</svg>
